<svg id="Layer_1" enable-background="new 0 0 511.756 511.756" height="512" viewBox="0 0 511.756 511.756" width="512" xmlns="http://www.w3.org/2000/svg"><g><path d="m159.283 0c-4.143 0-7.5 3.358-7.5 7.5v105.003h-19.825v-105.003c0-4.142-3.357-7.5-7.5-7.5s-7.5 3.358-7.5 7.5v105.003h-19.383v-105.003c0-4.142-3.357-7.5-7.5-7.5s-7.5 3.358-7.5 7.5v105.003h-19.864v-105.003c0-4.142-3.357-7.5-7.5-7.5s-7.5 3.358-7.5 7.5v154.408c0 15.952 8.596 30.792 22.432 38.729l12.432 7.132v45.998c-5.009 5.856-7.828 13.395-7.828 21.151v7.679c0 4.653 1.612 8.936 4.305 12.321-2.694 3.385-4.305 7.668-4.305 12.321v117.326c0 4.142 3.357 7.5 7.5 7.5s7.5-3.358 7.5-7.5v-117.327c0-2.658 2.163-4.821 4.821-4.821h25.358c2.658 0 4.82 2.163 4.82 4.821v172.018c0 9.649-7.851 17.5-17.5 17.5s-17.5-7.851-17.5-17.5v-19.771c0-4.142-3.357-7.5-7.5-7.5s-7.5 3.358-7.5 7.5v19.771c0 17.92 14.579 32.5 32.5 32.5s32.5-14.58 32.5-32.5v-172.018c0-4.653-1.612-8.936-4.305-12.321 2.694-3.385 4.305-7.668 4.305-12.321v-7.679c0-7.734-2.806-15.257-7.789-21.106v-46.045l12.412-7.128c13.824-7.94 22.412-22.776 22.412-38.718l.002-154.42c0-4.142-3.358-7.5-7.5-7.5zm-7.501 161.92c0 10.586-5.703 20.438-14.883 25.71l-16.177 9.291c-2.329 1.338-3.765 3.818-3.765 6.504v53.359c0 2.057.845 4.023 2.336 5.439 3.517 3.339 5.453 7.847 5.453 12.694v7.679c0 2.658-2.162 4.821-4.82 4.821h-25.358c-2.658 0-4.821-2.163-4.821-4.821v-7.679c0-4.86 1.946-9.377 5.48-12.719 1.499-1.417 2.348-3.388 2.348-5.45v-53.323c0-2.687-1.438-5.168-3.768-6.505l-16.2-9.294c-9.188-5.27-14.896-15.125-14.896-25.717v-34.405h89.07v34.416z"/><path d="m302.75 125.741c0 15.26-3.349 27.141-9.429 33.454-5.8 6.022-14.661 7.287-21.073 7.287s-15.273-1.264-21.073-7.288c-6.079-6.312-9.428-18.192-9.428-33.453 0-4.142-3.357-7.5-7.5-7.5s-7.5 3.358-7.5 7.5c0 19.439 4.711 34.605 13.624 43.858 9.456 9.821 22.555 11.882 31.877 11.882s22.42-2.062 31.878-11.881c8.913-9.255 13.624-24.421 13.624-43.859 0-4.142-3.357-7.5-7.5-7.5s-7.5 3.358-7.5 7.5z"/><path d="m272.249 0c-20.384 0-39.804 15.168-54.684 42.709-13.036 24.13-20.818 55.17-20.818 83.032 0 42.681 18.429 72.276 50.829 82.195v45.831c-5.008 5.856-7.827 13.395-7.827 21.15v7.679c0 4.652 1.611 8.935 4.305 12.32-2.694 3.385-4.306 7.668-4.306 12.321v172.018c0 17.92 14.58 32.5 32.501 32.5 17.92 0 32.499-14.58 32.499-32.5v-111.112c0-4.142-3.357-7.5-7.5-7.5s-7.5 3.358-7.5 7.5v111.113c0 9.649-7.851 17.5-17.5 17.5s-17.5-7.851-17.5-17.5v-172.018c0-2.658 2.163-4.821 4.821-4.821h25.358c2.658 0 4.82 2.163 4.82 4.821v26.324c0 4.142 3.357 7.5 7.5 7.5s7.5-3.358 7.5-7.5v-26.324c0-4.652-1.611-8.935-4.305-12.32 2.694-3.385 4.306-7.668 4.306-12.321v-7.679c0-7.734-2.806-15.256-7.79-21.106v-45.887c32.375-9.93 50.79-39.521 50.79-82.183 0-27.862-7.782-58.902-20.818-83.032-14.879-27.542-34.298-42.71-54.681-42.71zm15.576 194.834c-3.429.766-5.866 3.808-5.866 7.32v54.631c0 2.057.845 4.023 2.336 5.439 3.518 3.339 5.454 7.847 5.454 12.694v7.679c0 2.658-2.163 4.821-4.821 4.821h-25.358c-2.658 0-4.82-2.163-4.82-4.821v-7.679c0-4.86 1.946-9.377 5.48-12.72 1.498-1.417 2.347-3.388 2.347-5.449v-54.586c0-3.514-2.439-6.557-5.869-7.321-28.993-6.457-44.96-30.997-44.96-69.1 0-25.488 7.108-53.862 19.016-75.902 11.96-22.142 27.081-34.84 41.485-34.84s29.523 12.698 41.484 34.839c11.907 22.04 19.016 50.415 19.016 75.902 0 38.087-15.955 62.625-44.924 69.093z"/><path d="m464.044 314.917c0-7.735-2.806-15.257-7.79-21.106v-186.318c0-4.142-3.357-7.5-7.5-7.5s-7.5 3.358-7.5 7.5v189.291c0 2.057.845 4.023 2.337 5.439 3.517 3.338 5.453 7.846 5.453 12.693v7.679c0 2.658-2.162 4.821-4.82 4.821h-25.358c-2.658 0-4.821-2.163-4.821-4.821v-7.679c0-4.86 1.946-9.377 5.48-12.719 1.499-1.417 2.348-3.388 2.348-5.45v-35.332c0-4.142-3.357-7.5-7.5-7.5h-17.552v-176.145c0-28.205 18.224-52.496 44.434-60.771v56.237c0 4.142 3.357 7.5 7.5 7.5s7.5-3.358 7.5-7.5v-65.736c0-2.207-.972-4.301-2.656-5.727-1.686-1.425-3.914-2.036-6.088-1.669-38.063 6.404-65.689 39.067-65.689 77.666v183.647c0 4.142 3.357 7.5 7.5 7.5h17.552v24.85c-5.009 5.856-7.828 13.395-7.828 21.151v7.679c0 4.653 1.612 8.936 4.305 12.321-2.694 3.385-4.305 7.668-4.305 12.321v132.018c0 17.92 14.579 32.5 32.5 32.5s32.5-14.58 32.5-32.5v-132.019c0-4.653-1.612-8.936-4.305-12.321 2.694-3.385 4.305-7.668 4.305-12.321v-7.679zm-15 164.339c0 9.649-7.851 17.5-17.5 17.5s-17.5-7.851-17.5-17.5v-132.018c0-2.658 2.162-4.821 4.82-4.821h25.359c2.658 0 4.82 2.163 4.82 4.821v132.018z"/></g></svg>