<?xml version="1.0" encoding="iso-8859-1"?>
<!-- Generator: Adobe Illustrator 18.1.1, SVG Export Plug-In . SVG Version: 6.00 Build 0)  -->
<svg version="1.1" id="Capa_1" xmlns="http://www.w3.org/2000/svg" xmlns:xlink="http://www.w3.org/1999/xlink" x="0px" y="0px"
	 viewBox="0 0 174.239 174.239" style="enable-background:new 0 0 174.239 174.239;" xml:space="preserve">
<g>
	<path d="M34.362,0C15.414,0,0,15.416,0,34.362c0,18.95,15.414,34.367,34.362,34.367s34.364-15.416,34.364-34.367
		C68.726,15.416,53.31,0,34.362,0z"/>
	<g>
		<path d="M139.875,68.728c-18.948,0-34.362-15.416-34.362-34.367C105.513,15.416,120.927,0,139.875,0s34.364,15.416,34.364,34.362
			C174.239,53.312,158.823,68.728,139.875,68.728z M139.875,14.935c-10.713,0-19.427,8.717-19.427,19.427
			c0,10.715,8.714,19.432,19.427,19.432s19.429-8.717,19.429-19.432C159.305,23.652,150.588,14.935,139.875,14.935z"/>
	</g>
	<g>
		<path d="M34.362,174.239C15.414,174.239,0,158.823,0,139.878c0-18.95,15.414-34.367,34.362-34.367s34.364,15.416,34.364,34.367
			C68.726,158.823,53.31,174.239,34.362,174.239z M34.362,120.446c-10.713,0-19.427,8.717-19.427,19.432
			c0,10.71,8.714,19.427,19.427,19.427s19.429-8.717,19.429-19.427C53.791,129.163,45.074,120.446,34.362,120.446z"/>
	</g>
	<path d="M139.875,105.511c-18.948,0-34.362,15.416-34.362,34.367c0,18.946,15.414,34.362,34.362,34.362
		s34.364-15.416,34.364-34.362C174.239,120.927,158.823,105.511,139.875,105.511z"/>
</g>
<g>
</g>
<g>
</g>
<g>
</g>
<g>
</g>
<g>
</g>
<g>
</g>
<g>
</g>
<g>
</g>
<g>
</g>
<g>
</g>
<g>
</g>
<g>
</g>
<g>
</g>
<g>
</g>
<g>
</g>
</svg>
