<svg id="Capa_1" enable-background="new 0 0 512.001 512.001" height="512" viewBox="0 0 512.001 512.001" width="512" xmlns="http://www.w3.org/2000/svg"><g><g><g><g><path d="m3.101 139.481c1.558 3.8 5.449 6.317 9.556 6.174 4.14-.144 7.786-2.886 9.141-6.783 1.35-3.88.036-8.34-3.123-10.939-3.313-2.726-8.151-3.005-11.757-.679-4.005 2.581-5.651 7.825-3.817 12.227z"/><path d="m415.065 216.122c.98-2.526 1.883-5.046 2.703-7.549 5.52-16.84 7.775-33.96 6.896-52.338-1.458-30.443-15.547-59.711-39.671-82.413-23.161-21.796-52.59-34.297-80.741-34.297-41.94 0-74.717 23.413-90.523 37.37-1.176 1.039-2.89 1.061-4.074.049-16.382-13.975-49.883-37.419-90.187-37.419-33.304 0-68.757 17.969-92.524 46.894-3.506 4.267-2.89 10.569 1.377 14.075 4.268 3.507 10.569 2.89 14.075-1.377 20.066-24.42 49.599-39.591 77.072-39.591 33.89 0 62.919 20.447 77.206 32.635 8.694 7.416 21.717 7.299 30.293-.273 13.687-12.086 41.929-32.362 77.284-32.362 45.201 0 97.757 41.768 100.435 97.666.76 15.899-1.179 30.669-5.926 45.153-1.124 3.43-2.39 6.812-3.831 10.23-4.017-.381-8.086-.576-12.2-.576-71.28 0-129.271 58.425-129.271 130.239 0 3.396.13 6.762.385 10.094-9.892 8.067-17.931 14.672-24.649 20.358-10.145 8.588-24.869 8.586-35.012-.006-9.074-7.688-20.872-17.301-33.362-27.479-45.083-36.737-106.827-87.05-121.69-112.302-9.772-16.602-15.611-31.639-18.375-47.323-.319-1.813-.602-3.656-.838-5.479-.711-5.477-5.727-9.341-11.204-8.63s-9.341 5.728-8.63 11.204c.275 2.122.604 4.267.976 6.376 3.192 18.111 9.812 35.269 20.835 53.996 16.683 28.345 77.458 77.868 126.292 117.661 12.415 10.116 24.14 19.671 33.068 27.235 8.818 7.471 19.626 11.205 30.438 11.205 10.803 0 21.609-3.732 30.424-11.193 4.491-3.801 9.607-8.04 15.504-12.878 14.483 55.969 65.084 97.4 125.109 97.4 71.28 0 129.27-58.425 129.27-130.239.002-60.57-41.25-111.616-96.934-126.116zm-32.334 236.354c-60.253 0-109.272-49.453-109.272-110.239s49.019-110.239 109.272-110.239c60.252 0 109.271 49.453 109.271 110.239-.001 60.786-49.019 110.239-109.271 110.239z"/><path d="m430.629 307.877h-13.744v-13.952c0-12.268-9.936-22.248-22.149-22.248h-24.011c-12.213 0-22.149 9.98-22.149 22.248v13.952h-13.744c-12.213 0-22.149 9.98-22.149 22.248v24.225c0 12.268 9.936 22.248 22.149 22.248h13.744v13.953c0 12.267 9.936 22.248 22.149 22.248h24.011c12.213 0 22.149-9.98 22.149-22.248v-13.953h13.744c12.213 0 22.149-9.98 22.149-22.248v-24.225c.001-12.268-9.936-22.248-22.149-22.248zm2.15 46.472c0 1.239-.964 2.248-2.149 2.248h-23.744c-5.522 0-10 4.477-10 10v23.953c0 1.239-.964 2.248-2.149 2.248h-24.011c-1.186 0-2.149-1.008-2.149-2.248v-23.953c0-5.523-4.478-10-10-10h-23.744c-1.186 0-2.149-1.008-2.149-2.248v-24.225c0-1.24.964-2.248 2.149-2.248h23.744c5.522 0 10-4.477 10-10v-23.952c0-1.24.964-2.248 2.149-2.248h24.011c1.185 0 2.149 1.008 2.149 2.248v23.952c0 5.523 4.478 10 10 10h23.744c1.186 0 2.149 1.008 2.149 2.248z"/></g></g></g></g></svg>