<svg xmlns="http://www.w3.org/2000/svg" height="512pt" viewBox="-43 0 512 512" width="512pt"><path d="M250.684 512h-76.106a10.94 10.94 0 01-10.808-9.246l-4.497-28.758h106.715l-4.496 28.758A10.94 10.94 0 01250.684 512zm0 0" fill="#344a5d"/><path d="M342.836 227.883c0-70.395-55.863-127.742-125.676-130.13-72.488-2.476-133.95 56.173-134.726 128.7-.293 27.078 7.683 52.281 21.562 73.23 30.035 45.348 46.832 98.165 46.832 152.56v5.718h123.606v-8.383c0-53.262 16.625-104.95 46.34-149.152 13.933-20.73 22.062-45.688 22.062-72.543zm0 0" fill="#fcea68"/><path d="M217.16 97.754c-10.496-.36-20.754.57-30.633 2.633 59.188 12.25 103.676 64.675 103.676 127.496 0 26.855-8.129 51.812-22.062 72.543-29.715 44.203-46.34 95.89-46.34 149.152v8.387h52.637v-8.387c0-53.262 16.625-104.95 46.335-149.152 13.934-20.73 22.067-45.688 22.067-72.543-.004-70.395-55.867-127.742-125.68-130.13zm0 0" fill="#fed066"/><path d="M229.648 381.25h-34.035a7.606 7.606 0 01-7.605-7.41c-.016-.504-1.621-51.324-21.453-92.73a7.613 7.613 0 013.578-10.153c3.789-1.82 8.336-.215 10.152 3.574 16.824 35.13 21.348 75.196 22.531 91.496h19.625c1.188-16.297 5.711-56.367 22.536-91.496a7.611 7.611 0 0113.727 6.578c-19.876 41.504-21.438 92.223-21.45 92.73a7.608 7.608 0 01-7.606 7.411zm0 0" fill="#dbd9d1"/><path d="M238.527 435.184H186.73v-65.348a5.5 5.5 0 015.5-5.5h40.801a5.5 5.5 0 015.5 5.5v65.348zm0 0" fill="#fd715c"/><path d="M267.73 487.898H157.531c-9.023 0-16.34-7.316-16.34-16.34v-65.03a5.888 5.888 0 015.887-5.887h131.106a5.888 5.888 0 015.886 5.886v65.032c0 9.023-7.316 16.34-16.34 16.34zm0 0" fill="#3c5666"/><path d="M278.184 400.64h-46.747v76.805c0 5.774-4.68 10.453-10.453 10.453h46.746c9.024 0 16.34-7.316 16.34-16.34v-65.03a5.888 5.888 0 00-5.886-5.887zm0 0" fill="#2a3f4f"/><path d="M141.191 421.219v15.222h142.88V421.22zm0 0M141.191 450.352h142.88v15.222H141.19zm0 0" fill="#52707f"/><path d="M238.77 287.652c-5.61 0-8.868-2.21-10.813-3.535-1.281-.87-1.332-.902-2.262-.902-.925 0-.976.031-2.257.902-1.946 1.32-5.204 3.535-10.813 3.535-5.61 0-8.867-2.214-10.813-3.535-1.28-.87-1.332-.902-2.257-.902-.926 0-.977.031-2.254.902-1.946 1.32-5.203 3.535-10.813 3.535-5.605 0-8.863-2.214-10.808-3.535-1.282-.87-1.332-.902-2.258-.902a7.615 7.615 0 01-7.613-7.613 7.615 7.615 0 017.613-7.614c5.605 0 8.863 2.215 10.808 3.535 1.282.872 1.333.903 2.258.903.926 0 .977-.031 2.258-.903 1.945-1.32 5.203-3.535 10.809-3.535 5.61 0 8.867 2.215 10.812 3.535 1.281.872 1.332.903 2.258.903.926 0 .977-.031 2.258-.903 1.945-1.324 5.207-3.535 10.812-3.535 5.61 0 8.868 2.211 10.813 3.535 1.281.872 1.332.907 2.262.907.925 0 .976-.035 2.257-.907 1.95-1.324 5.207-3.535 10.813-3.535a7.613 7.613 0 110 15.227c-.926 0-.977.031-2.258.902-1.95 1.324-5.203 3.535-10.812 3.535zm0 0" fill="#dbd9d1"/><path d="M211.797 48.516a7.612 7.612 0 01-7.61-7.614V7.61A7.609 7.609 0 01211.798 0a7.61 7.61 0 017.613 7.61v33.292a7.613 7.613 0 01-7.613 7.614zm0 0M417.652 221.074H384.36a7.612 7.612 0 110-15.222h33.293a7.612 7.612 0 010 15.222zm0 0M39.238 221.074H7.61a7.612 7.612 0 010-15.223h31.63c4.202 0 7.609 3.41 7.609 7.614.004 4.203-3.407 7.61-7.61 7.61zm0 0M357.36 366.633a7.589 7.589 0 01-5.383-2.227l-23.543-23.543a7.608 7.608 0 010-10.761 7.613 7.613 0 0110.765 0l23.54 23.539a7.606 7.606 0 010 10.765 7.586 7.586 0 01-5.38 2.227zm0 0M89.781 99.055a7.589 7.589 0 01-5.383-2.227L60.86 73.285a7.608 7.608 0 010-10.762 7.608 7.608 0 0110.762 0l23.54 23.54a7.606 7.606 0 010 10.765 7.586 7.586 0 01-5.38 2.227zm0 0M333.816 99.055a7.595 7.595 0 01-5.382-2.227 7.613 7.613 0 010-10.766l23.543-23.539a7.608 7.608 0 0110.761 0 7.601 7.601 0 010 10.762L339.2 96.828a7.589 7.589 0 01-5.383 2.227zm0 0M66.238 366.633a7.586 7.586 0 01-5.379-2.227 7.613 7.613 0 010-10.765L84.4 330.1a7.608 7.608 0 0110.761 0 7.601 7.601 0 010 10.762l-23.539 23.543a7.589 7.589 0 01-5.383 2.227zm0 0" fill="#fed066"/></svg>