<svg xmlns="http://www.w3.org/2000/svg" width="512" height="512" viewBox="0 0 47.002 47.002"><path d="M46.27.733a2.498 2.498 0 00-3.535 0l-6.232 6.233c-2.694-4.174-7.501-6.965-13-6.965-8.441 0-15.287 6.556-15.287 14.644 0 7.708 4.291 10.809 5.987 14.621L.734 42.733a2.498 2.498 0 001.768 4.268c.64 0 1.279-.244 1.768-.732l11.651-11.65c.431.47.974.902 1.607 1.279-.333.275-.517.578-.517.896 0 .426.335.823.908 1.164-.539.335-.852.721-.852 1.133 0 .415.32.804.872 1.141-.563.339-.892.732-.892 1.152 0 .512.484.983 1.293 1.365-.314.285-.493.599-.493.93 0 .979 1.524 1.812 3.669 2.142.375.698 1.14 1.182 2.031 1.182.889 0 1.652-.48 2.03-1.176 2.161-.327 3.703-1.163 3.703-2.146 0-.326-.173-.637-.479-.918.825-.384 1.32-.859 1.32-1.377 0-.416-.321-.806-.874-1.143.562-.339.891-.73.891-1.15 0-.426-.335-.823-.909-1.165.54-.334.854-.72.854-1.132 0-.329-.2-.642-.557-.924 1.562-.943 2.6-2.215 2.6-3.584 0-5.591 6.663-8.037 6.663-17.643 0-.901-.099-1.779-.261-2.636l7.74-7.74A2.498 2.498 0 0046.27.733zM15.523 23.706c-1.701-2.494-3.309-4.848-3.309-9.062.001-5.868 5.064-10.643 11.288-10.643 4.409 0 8.224 2.401 10.082 5.884L17.176 26.292c-.52-.92-1.098-1.773-1.653-2.586zm15.961.002c-1.524 2.236-3.247 4.763-3.354 8.238-.521.584-2.39 1.533-4.625 1.533s-4.104-.949-4.625-1.533c-.003-.092-.019-.175-.023-.266l15.876-15.876c-.268 3.499-1.714 5.652-3.249 7.904z" data-original="#000000" class="active-path" data-old_color="#000000" fill="#E3E9ED"/></svg>
