<svg height="512" viewBox="0 0 60 60" width="512" xmlns="http://www.w3.org/2000/svg"><g id="Page-1" fill="none" fill-rule="evenodd"><g id="037---Train" fill="rgb(0,0,0)" fill-rule="nonzero"><path id="Shape" d="m1.055 58.969c.35243489.6363405 1.02258019 1.0311518 1.75 1.031h8.5c.8334819-.0030813 1.5785897-.520241 1.873-1.3l.263-.7h33.116l.263.7c.2944103.779759 1.0395181 1.2969187 1.873 1.3h8.5c.728091.0016868 1.3995778-.3924345 1.7530827-1.0289513.353505-.6365168.3331726-1.4148565-.0530827-2.0320487l-11.985-19.166c1.9626704-1.7035156 3.0905593-4.1741467 3.092-6.773v-15c-.0104696-8.8322157-7.1677843-15.98953038-16-16h-8c-8.8322157.01046962-15.9895304 7.1677843-16 16v15c.0014407 2.5988533 1.1293296 5.0694844 3.092 6.773l-11.983 19.166c-.38574136.6165211-.40641889 1.3938431-.054 2.03zm13.138-2.969.75-2h30.114l.75 2zm6-16h19.614l.75 2h-21.114zm-1.5 4h22.614l.75 2h-24.114zm-1.5 4h25.614l1.5 4h-28.614zm40 10h-8.5l-6.768-18.048c1.1713779-.1200533 2.307479-.4704332 3.343-1.031zm-16.193-20h-2.995c.051-4.344.748-11.241 9.995-15.483v8.483c-.0044086 3.8641657-3.1358343 6.9955914-7 7zm-15-36h8c7.7285595.00826732 13.9917327 6.27144053 14 14v4.335c-11.154 4.695-11.941 12.954-11.995 17.665h-12.005c-.059-4.711-.846-12.97-12-17.665v-4.335c.0082673-7.72855947 6.2714405-13.99173268 14-14zm-14 29v-8.483c9.247 4.242 9.944 11.139 10 15.483h-3c-3.8641657-.0044086-6.9955914-3.1358343-7-7zm2.732 7.921c1.035521.5605668 2.1716221.9109467 3.343 1.031l-6.768 18.048h-8.5z"/><path id="Shape" d="m15 33h2c.5522847 0 1-.4477153 1-1s-.4477153-1-1-1h-2c-.5522847 0-1 .4477153-1 1s.4477153 1 1 1z"/><path id="Shape" d="m45 31h-2c-.5522847 0-1 .4477153-1 1s.4477153 1 1 1h2c.5522847 0 1-.4477153 1-1s-.4477153-1-1-1z"/><path id="Shape" d="m16.039 18.958c1.3489259.7403358 2.6255067 1.6054511 3.813 2.584.3556247.2950424.80292.4569881 1.265.458h17.766c.46208-.0010119.9093753-.1629576 1.265-.458 1.1874933-.9785489 2.4640741-1.8436642 3.813-2.584.6384904-.3498191 1.0364533-1.0189637 1.039-1.747v-1.211c-.0071635-6.07216255-4.9278374-10.9928365-11-11h-8c-6.0721626.0071635-10.9928365 4.92783745-11 11v1.211c.0025467.7280363.4005096 1.3971809 1.039 1.747zm26.961-2.958-.008 1.208c-1.4551361.7982094-2.8310054 1.7330906-4.109 2.792h-7.883v-13h3c4.9682782.00551113 8.9944889 4.0317218 9 9zm-26 0c.0055111-4.9682782 4.0317218-8.99448887 9-9h3v13h-7.871c-1.2843578-1.0590594-2.6669745-1.9929703-4.129-2.789z"/><path id="Shape" d="m32 25h-4c-.5522847 0-1 .4477153-1 1s.4477153 1 1 1h4c.5522847 0 1-.4477153 1-1s-.4477153-1-1-1z"/><path id="Shape" d="m32 29h-4c-.5522847 0-1 .4477153-1 1s.4477153 1 1 1h4c.5522847 0 1-.4477153 1-1s-.4477153-1-1-1z"/><path id="Shape" d="m32 33h-4c-.5522847 0-1 .4477153-1 1s.4477153 1 1 1h4c.5522847 0 1-.4477153 1-1s-.4477153-1-1-1z"/></g></g></svg>