<?xml version="1.0"?>
<svg xmlns="http://www.w3.org/2000/svg" viewBox="0 0 64 64" width="512" height="512"><g id="Bussiness-Coin-Money-Home-Global"><path d="M60.83,27.78,34.01,3.48a2.98,2.98,0,0,0-4.02,0L23.4,9.45A10.993,10.993,0,1,0,8.44,23L3.17,27.78A3,3,0,0,0,5.19,33H6a1,1,0,0,1,1,1V59a3.009,3.009,0,0,0,3,3H23a3.009,3.009,0,0,0,3-3V52a1,1,0,0,1,1-1H37a1,1,0,0,1,1,1v7a3.009,3.009,0,0,0,3,3H54a3.009,3.009,0,0,0,3-3V34a1,1,0,0,1,1-1h.81a3,3,0,0,0,2.02-5.22ZM21.94,12H17.98a23.513,23.513,0,0,0-.32-3.05,11.038,11.038,0,0,0,2.4-1.52A8.95,8.95,0,0,1,21.94,12Zm0,2a8.95,8.95,0,0,1-1.88,4.57,11.038,11.038,0,0,0-2.4-1.52A23.513,23.513,0,0,0,17.98,14ZM18.65,6a8.734,8.734,0,0,1-1.44.95,12.77,12.77,0,0,0-.89-2.31A9.184,9.184,0,0,1,18.65,6ZM17.21,19.05a8.734,8.734,0,0,1,1.44.95,9.184,9.184,0,0,1-2.33,1.36A12.77,12.77,0,0,0,17.21,19.05ZM13,4c.76,0,1.73,1.35,2.36,3.68A9.265,9.265,0,0,1,13,8a9.265,9.265,0,0,1-2.36-.32C11.27,5.35,12.24,4,13,4ZM10.24,9.64A11.054,11.054,0,0,0,13,10a11.054,11.054,0,0,0,2.76-.36A20.617,20.617,0,0,1,15.98,12H10.02A20.617,20.617,0,0,1,10.24,9.64ZM15.98,14a20.617,20.617,0,0,1-.22,2.36,10.76,10.76,0,0,0-5.52,0A20.617,20.617,0,0,1,10.02,14Zm-.62,4.32C14.73,20.65,13.76,22,13,22s-1.73-1.35-2.36-3.68a8.863,8.863,0,0,1,4.72,0ZM9.68,4.64a12.77,12.77,0,0,0-.89,2.31A8.734,8.734,0,0,1,7.35,6,9.184,9.184,0,0,1,9.68,4.64ZM5.94,7.43a11.038,11.038,0,0,0,2.4,1.52A23.513,23.513,0,0,0,8.02,12H4.06A8.95,8.95,0,0,1,5.94,7.43ZM4.06,14H8.02a23.513,23.513,0,0,0,.32,3.05,11.038,11.038,0,0,0-2.4,1.52A8.95,8.95,0,0,1,4.06,14Zm3.29,6a8.734,8.734,0,0,1,1.44-.95,12.77,12.77,0,0,0,.89,2.31A9.184,9.184,0,0,1,7.35,20Zm52.4,10.36a.988.988,0,0,1-.94.64H58a3.009,3.009,0,0,0-3,3V59a1,1,0,0,1-1,1H41a1,1,0,0,1-1-1V52a3.009,3.009,0,0,0-3-3H27a3.009,3.009,0,0,0-3,3v7a1,1,0,0,1-1,1H10a1,1,0,0,1-1-1V34a3.009,3.009,0,0,0-3-3H5.19a1,1,0,0,1-.68-1.74l6.1-5.53A10.971,10.971,0,0,0,24,13a9.649,9.649,0,0,0-.09-1.32l7.42-6.72a.986.986,0,0,1,1.34,0l26.82,24.3A.993.993,0,0,1,59.75,30.36Z"/><path d="M32,19A13,13,0,1,0,45,32,13.012,13.012,0,0,0,32,19Zm0,24A11,11,0,1,1,43,32,11.007,11.007,0,0,1,32,43Z"/><path d="M36,35a4,4,0,0,1-3,3.86V40H31V38.86A4,4,0,0,1,28,35h2a2,2,0,1,0,2-2,3.993,3.993,0,0,1-1-7.86V24h2v1.14A4,4,0,0,1,36,29H34a2,2,0,1,0-2,2A4,4,0,0,1,36,35Z"/><path d="M51,12a1,1,0,0,1,1,1,1,1,0,0,0,2,0,3,3,0,0,0-3-3,1,1,0,0,0,0,2Z"/><path d="M51,8a5.006,5.006,0,0,1,5,5,1,1,0,0,0,2,0,7.008,7.008,0,0,0-7-7,1,1,0,0,0,0,2Z"/><path d="M51,4a9.011,9.011,0,0,1,9,9,1,1,0,0,0,2,0A11.013,11.013,0,0,0,51,2a1,1,0,0,0,0,2Z"/></g></svg>
