<?xml version="1.0"?>
<svg xmlns="http://www.w3.org/2000/svg" height="512px" viewBox="0 0 512 512" width="512px" class=""><g><g id="solid"><path d="m292.256 131.5a143.053 143.053 0 0 0 26.344-72.639l-28.875 14.439a8 8 0 0 1 -9.234-1.5l-24.991-24.989-24.984 24.989a8 8 0 0 1 -9.235 1.5l-28.7-14.351a145.078 145.078 0 0 0 27.428 72.551z" data-original="#000000" class="active-path" data-old_color="#000000" fill="#41D3BE"/><path d="m336.807 254.389a51.266 51.266 0 0 0 -62.319 16.989l-11.978 16.769a8 8 0 0 1 -13.02 0l-11.978-16.768a51.262 51.262 0 0 0 -41.7-21.361 50.976 50.976 0 0 0 -49.968 41.035 66.118 66.118 0 0 0 29.644 68.692l80.512 50.318 80.509-50.318a66.119 66.119 0 0 0 29.643-68.692 51.153 51.153 0 0 0 -29.345-36.664zm-125.807 74.111a13 13 0 1 1 13-13 13 13 0 0 1 -13 13zm66.657 24.657a30.665 30.665 0 0 1 -43.314 0l11.314-11.314a14.644 14.644 0 0 0 20.686 0 8 8 0 0 1 11.314 11.314zm23.343-24.657a13 13 0 1 1 13-13 13 13 0 0 1 -13 13z" data-original="#000000" class="active-path" data-old_color="#000000" fill="#41D3BE"/><path d="m386.656 231.851-93.726-84.351h-73.86l-93.726 84.354a133.163 133.163 0 0 0 39.626 222.615 244.082 244.082 0 0 0 182.06 0 133.164 133.164 0 0 0 39.626-222.619zm-231.466 193.612a8 8 0 0 1 -11.234 1.336 108.843 108.843 0 0 1 -36.31-52.085 8 8 0 0 1 15.219-4.94 92.894 92.894 0 0 0 30.989 44.455 8 8 0 0 1 1.336 11.234zm31.123 13.878a7.992 7.992 0 0 1 -10.159 4.979c-2.9-.993-5.795-2.122-8.6-3.357a8 8 0 1 1 6.438-14.647c2.4 1.054 4.87 2.018 7.347 2.866a8 8 0 0 1 4.974 10.159zm158.676-66.028-84.749 52.968a8 8 0 0 1 -8.48 0l-84.748-52.968a82.2 82.2 0 0 1 -36.854-85.4 67.087 67.087 0 0 1 120.374-25.835l5.468 7.655 5.468-7.655a67.087 67.087 0 0 1 120.374 25.836 82.2 82.2 0 0 1 -36.853 85.399z" data-original="#000000" class="active-path" data-old_color="#000000" fill="#41D3BE"/></g></g> </svg>
